Coordinates
version=1
nRows=13
nColumns=36
inDegrees=yes

Units are S.I. units (second, meters, Newtons, ...)
If the header above contains a line with 'inDegrees', this indicates whether rotational values are in degrees (yes) or radians (no).

endheader
time	pelvis_tilt	pelvis_list	pelvis_rotation	pelvis_tx	pelvis_ty	pelvis_tz	hip_flexion_r	hip_adduction_r	hip_rotation_r	knee_angle_r	knee_angle_r_beta	ankle_angle_r	subtalar_angle_r	mtp_angle_r	hip_flexion_l	hip_adduction_l	hip_rotation_l	knee_angle_l	knee_angle_l_beta	ankle_angle_l	subtalar_angle_l	mtp_angle_l	lumbar_extension	lumbar_bending	lumbar_rotation	arm_flex_r	arm_add_r	arm_rot_r	elbow_flex_r	pro_sup_r	arm_flex_l	arm_add_l	arm_rot_l	elbow_flex_l	pro_sup_l
      2.93333330	    -14.90395250	     -3.01768898	      9.02610700	      0.58948292	      0.89269635	     -0.00259422	     20.73474620	     -5.87731716	     -9.34571431	     15.20347422	      0.26535068	      7.05490069	    -10.01764607	     -7.49999987	     21.53008657	     -8.81489746	     -9.18398506	     16.43010241	      0.28675938	     11.15101811	     -2.91872250	     -7.49999987	      3.02040372	      1.12547832	      4.34263032	     48.65958558	      0.23871502	     54.96300248	    131.24258611	     98.99712678	     43.25025510	      4.36313106	     65.17639530	    127.70853530	    105.60780176
      2.95000000	    -15.01963370	     -3.07320161	      9.13397070	      0.58960050	      0.88858846	     -0.00279717	     20.97808661	     -5.87640297	     -9.29475282	     15.31572539	      0.26730984	      7.04391302	    -10.27633681	     -7.49999987	     21.66958198	     -8.79697755	     -8.91995615	     16.37968039	      0.28587935	     11.24576697	     -3.11913176	     -7.49999987	      3.18858701	      1.14847542	      4.07287558	     48.77141268	      0.54174528	     55.42806752	    131.50965836	     97.42568000	     43.29255968	      4.51649225	     65.23308415	    127.59823641	    103.76553033
      2.96666670	    -15.17198143	     -3.12810309	      9.21606503	      0.58972551	      0.88888503	     -0.00281658	     21.33893643	     -5.90349429	     -9.21070371	     15.64353869	      0.27303126	      7.14632217	    -10.54364235	     -7.49999987	     21.99929945	     -8.80830194	     -8.70030733	     16.61935095	      0.29006239	     11.45853758	     -3.30556644	     -7.49999987	      3.33944826	      1.15474011	      4.00386420	     48.27946437	      0.30452818	     55.50191810	    131.79018559	     98.76776019	     42.98522961	      4.40027861	     65.10779382	    127.48226579	    105.99072832
      2.98333330	    -15.22718583	     -3.19753183	      9.35364369	      0.58967304	      0.88916915	     -0.00306196	     21.52702803	     -5.91062558	     -9.14697758	     15.88702663	      0.27728092	      7.34190142	    -10.76095688	     -7.49999987	     22.26254204	     -8.82574778	     -8.43547819	     16.81629461	      0.29349971	     11.67001431	     -3.52907486	     -7.49999987	      3.26017785	      1.22876015	      3.75086495	     48.07638967	      0.31706853	     55.97142866	    131.60373124	     97.84387471	     42.96300819	      4.48578985	     65.56799691	    127.18970751	    105.31177958
      3.00000000	    -15.13636038	     -3.25190430	      9.42832507	      0.59437379	      0.89028517	     -0.00111820	     21.44867182	     -5.83569368	     -9.02338452	     16.00493817	      0.27933887	      7.49118515	    -10.86385892	     -7.49999987	     22.25097828	     -8.91193004	     -8.29339914	     17.00664939	      0.29682203	     11.72328037	     -3.66250416	     -7.49999987	      3.17211369	      1.13374836	      3.69457304	     47.23504895	      0.63177494	     56.11810031	    131.50457363	     97.93955936	     42.17800268	      3.99686782	     66.09404128	    127.10908787	    105.39551171
      3.01666670	    -15.22151022	     -3.31972767	      9.51765439	      0.59420597	      0.89020740	     -0.00126458	     21.65402073	     -5.80185706	     -8.93005971	     16.30784091	      0.28462552	      7.60261713	    -11.07862791	     -7.49999987	     22.50662949	     -8.98358439	     -8.06779538	     17.31738511	      0.30224539	     11.76771554	     -3.88504578	     -7.49999987	      3.26654670	      1.07504240	      3.49282363	     46.48386396	      0.86710012	     56.10960803	    131.31607424	     98.82675373	     41.25841320	      3.33613331	     66.33829860	    126.99268600	    106.91778256
      3.03333330	    -15.26503756	     -3.38259195	      9.65761836	      0.59449631	      0.88813018	     -0.00162798	     21.92179312	     -5.82133633	     -8.88340378	     16.86281217	      0.29431159	      7.76723843	    -11.27119344	     -7.49999987	     22.86604383	     -9.05251412	     -7.87838463	     17.85193878	      0.31157511	     11.97623211	     -3.98966420	     -7.49999987	      3.44056754	      1.05945130	      3.60477756	     45.89270034	      0.76755705	     56.22705929	    131.62752619	     99.41427990	     40.56444932	      3.35539518	     67.52476143	    127.39088059	    107.17858343
      3.05000000	    -15.37347152	     -3.44376664	      9.74541482	      0.59438723	      0.88559809	     -0.00143892	     22.36551482	     -5.84264209	     -8.72881198	     17.58687905	      0.30694894	      8.03779554	    -11.55633440	     -7.49999987	     23.48607248	     -9.14160956	     -7.61467364	     18.69117802	      0.32622260	     12.39769283	     -4.18097603	     -7.49999987	      3.61199864	      1.01181671	      3.77405364	     45.30442166	      0.60940548	     56.29237168	    132.14443311	     99.53069400	     39.89879670	      3.52844971	     68.78729350	    127.91356355	    107.74774558
      3.06666670	    -15.56170612	     -3.51046126	      9.83134575	      0.59449589	      0.88285394	     -0.00126910	     23.12649842	     -5.93017801	     -8.61936157	     18.76543391	      0.32751861	      8.53508345	    -11.74812729	     -7.49999987	     24.43378808	     -9.26511385	     -7.32139767	     19.96926905	      0.34852949	     13.13547447	     -4.32680206	     -7.49999987	      3.87595608	      0.98530348	      4.06751535	     44.42970520	      0.15343194	     56.60893607	    133.09132540	    101.12829090	     38.98610780	      3.63899367	     69.62157769	    127.89496934	    107.09452238
      3.08333330	    -15.49012569	     -3.52096274	      9.87530451	      0.59942053	      0.87906389	      0.00050648	     23.86458992	     -6.03472593	     -8.44098643	     20.52343607	      0.35820153	      9.32609463	    -11.99143793	     -7.49999987	     25.20562038	     -9.44441476	     -7.08093163	     21.59192931	      0.37685026	     13.96980404	     -4.53004998	     -7.49999987	      3.85052794	      0.98804359	      4.32781704	     43.78655876	      0.05352525	     57.21910096	    133.53508579	    101.14877069	     38.08014630	      3.67501932	     70.13329562	    128.18759112	    107.16013913
      3.10000000	    -15.72003701	     -3.54140866	      9.90843088	      0.59935953	      0.87850310	      0.00049044	     24.99664812	     -6.24044586	     -8.34931100	     22.43891104	      0.39163288	     10.28201096	    -11.93743682	     -7.49999987	     26.34146633	     -9.62165051	     -6.99649128	     23.32406677	      0.40708176	     14.76690487	     -4.68155976	     -7.49999987	      4.17664821	      0.90818995	      4.74981746	     42.84591340	     -0.41543351	     57.87705839	    133.84133140	    100.58921150	     37.29366625	      3.68284507	     70.60230457	    128.27247376	    107.73142288
      3.11666670	    -15.59556013	     -3.45621389	      9.97195684	      0.59504425	      0.87342058	     -0.00186968	     25.98630013	     -6.54493856	     -8.15730999	     24.76531821	      0.43223634	     11.20648186	    -12.17592148	     -7.49999987	     27.34240551	     -9.68149938	     -6.59119985	     25.42377719	      0.44372862	     15.77825081	     -5.08047336	     -7.49999987	      3.74019537	      0.85326645	      4.68490444	     42.88386229	     -0.50779494	     58.46745798	    133.96468276	    100.49921986	     37.37107257	      3.91065067	     70.47453272	    128.16258566	    107.31408230
      3.13333330	    -16.09262240	     -3.44544221	      9.96475841	      0.59977484	      0.86844833	      0.00012352	     27.67151885	     -6.84997776	     -7.90254145	     27.20336689	      0.47478832	     12.49106729	    -12.00341204	     -7.49999987	     28.88668644	     -9.74690170	     -6.35274785	     27.50864509	      0.48011643	     16.56441841	     -5.43040506	     -7.49999987	      4.44123228	      0.80604618	      4.80901404	     42.09486374	     -0.37079298	     59.13569824	    134.08941463	    100.92471504	     36.52757639	      3.81068619	     70.70962707	    128.16310483	    107.43627358
